<svg width="49" height="48" viewBox="0 0 49 48" fill="none" xmlns="http://www.w3.org/2000/svg">
<path d="M12.0633 38.5H26.9365C28.0655 38.5 28.9539 37.5634 28.7289 36.457C28.1079 33.4024 26.0793 28 19.4999 28C12.9205 28 10.892 33.4024 10.2709 36.457C10.0459 37.5634 10.9343 38.5 12.0633 38.5Z" stroke="#DA0175" stroke-width="1.5" stroke-linecap="round" stroke-linejoin="round"/>
<path d="M32 28C36.1576 28 37.8604 32.2958 38.5478 35.392C38.919 37.064 37.5666 38.5 35.8538 38.5H34" stroke="#DA0175" stroke-width="1.5" stroke-linecap="round" stroke-linejoin="round"/>
<path d="M19.5 20.5C22.5376 20.5 25 18.0376 25 15C25 11.9624 22.5376 9.5 19.5 9.5C16.4624 9.5 14 11.9624 14 15C14 18.0376 16.4624 20.5 19.5 20.5Z" stroke="#DA0175" stroke-width="1.5" stroke-linecap="round" stroke-linejoin="round"/>
<path d="M30 20.5C33.0376 20.5 35 18.0376 35 15C35 11.9624 33.0376 9.5 30 9.5" stroke="#DA0175" stroke-width="1.5" stroke-linecap="round" stroke-linejoin="round"/>
</svg>
