<svg width="20" height="18" viewBox="0 0 20 18" fill="none" xmlns="http://www.w3.org/2000/svg">
<path fill-rule="evenodd" clip-rule="evenodd" d="M1.05654 0.545877C1.57724 0.0628327 2.42146 0.0628327 2.94216 0.545877L9.99935 7.09272L17.0565 0.545877C17.5772 0.0628327 18.4215 0.0628327 18.9422 0.545877C19.4629 1.02892 19.4629 1.81209 18.9422 2.29513L11.885 8.84197L18.9422 15.3888C19.4629 15.8719 19.4629 16.655 18.9422 17.1381C18.4215 17.6211 17.5772 17.6211 17.0565 17.1381L9.99935 10.5912L2.94216 17.1381C2.42146 17.6211 1.57724 17.6211 1.05654 17.1381C0.535841 16.655 0.535841 15.8719 1.05654 15.3888L8.11373 8.84197L1.05654 2.29513C0.535841 1.81209 0.535841 1.02892 1.05654 0.545877Z" fill="#3F3F55"/>
</svg>
