<svg width="25" height="32" viewBox="0 0 25 32" fill="none" xmlns="http://www.w3.org/2000/svg">
<g clip-path="url(#clip0_75516_6788)">
<path d="M6.75 3.79883L7.59115 13.4721C7.68102 14.5056 8.54622 15.2988 9.58363 15.2988H14.4164C15.4538 15.2988 16.319 14.5056 16.4088 13.4721L17.25 3.79883" stroke="#AE1100" stroke-width="1.5" stroke-linecap="round" stroke-linejoin="round"/>
<path d="M9.75 3.54883V2.79883C9.75 1.69426 10.6454 0.798828 11.75 0.798828H12.25C13.3546 0.798828 14.25 1.69426 14.25 2.79883V3.54883" stroke="#AE1100" stroke-width="1.5" stroke-linecap="round" stroke-linejoin="round"/>
<path d="M5 3.79883H19" stroke="#AE1100" stroke-width="1.5" stroke-linecap="round" stroke-linejoin="round"/>
</g>
<path d="M1.064 28.0488C0.936 28.0488 0.834667 28.0142 0.76 27.9448C0.690667 27.8702 0.656 27.7715 0.656 27.6488V22.8088C0.656 22.6862 0.690667 22.5902 0.76 22.5208C0.834667 22.4462 0.936 22.4088 1.064 22.4088H4.008C4.13067 22.4088 4.224 22.4382 4.288 22.4968C4.35733 22.5555 4.392 22.6382 4.392 22.7448C4.392 22.8515 4.35733 22.9342 4.288 22.9928C4.224 23.0462 4.13067 23.0728 4.008 23.0728H1.464V24.8488H3.848C3.97067 24.8488 4.064 24.8782 4.128 24.9368C4.19733 24.9955 4.232 25.0782 4.232 25.1848C4.232 25.2915 4.19733 25.3742 4.128 25.4328C4.064 25.4915 3.97067 25.5208 3.848 25.5208H1.464V27.3848H4.008C4.264 27.3848 4.392 27.4942 4.392 27.7128C4.392 27.8195 4.35733 27.9022 4.288 27.9608C4.224 28.0195 4.13067 28.0488 4.008 28.0488H1.064ZM8.52769 27.4408C8.60769 27.5208 8.64769 27.6142 8.64769 27.7208C8.64769 27.8222 8.61035 27.9102 8.53569 27.9848C8.46635 28.0542 8.38102 28.0888 8.27969 28.0888C8.17835 28.0888 8.08502 28.0435 7.99969 27.9528L6.77569 26.5768L5.55969 27.9528C5.47435 28.0435 5.38102 28.0888 5.27969 28.0888C5.17835 28.0888 5.09035 28.0515 5.01569 27.9768C4.94635 27.9022 4.91169 27.8142 4.91169 27.7128C4.91169 27.6115 4.94902 27.5208 5.02369 27.4408L6.28769 26.0488L5.08769 24.7128C5.00769 24.6222 4.96769 24.5315 4.96769 24.4408C4.96769 24.3395 5.00502 24.2542 5.07969 24.1848C5.15435 24.1102 5.23969 24.0728 5.33569 24.0728C5.43702 24.0728 5.53035 24.1182 5.61569 24.2088L6.77569 25.5208L7.93569 24.2088C8.02102 24.1182 8.11702 24.0728 8.22369 24.0728C8.31969 24.0728 8.40502 24.1102 8.47969 24.1848C8.55435 24.2542 8.59169 24.3395 8.59169 24.4408C8.59169 24.5422 8.55169 24.6328 8.47169 24.7128L7.27169 26.0488L8.52769 27.4408ZM11.0367 28.1048C10.658 28.1048 10.3247 28.0222 10.0367 27.8568C9.75402 27.6915 9.53269 27.4568 9.37269 27.1528C9.21802 26.8488 9.14069 26.4968 9.14069 26.0968C9.14069 25.6915 9.22069 25.3342 9.38069 25.0248C9.54602 24.7155 9.77535 24.4755 10.0687 24.3048C10.362 24.1342 10.698 24.0488 11.0767 24.0488C11.2794 24.0488 11.482 24.0782 11.6847 24.1368C11.8927 24.1955 12.0767 24.2755 12.2367 24.3768C12.4074 24.4942 12.4927 24.6302 12.4927 24.7848C12.4927 24.8755 12.4687 24.9528 12.4207 25.0168C12.3727 25.0755 12.3114 25.1048 12.2367 25.1048C12.1887 25.1048 12.1407 25.0942 12.0927 25.0728C12.0447 25.0462 11.9834 25.0088 11.9087 24.9608C11.7754 24.8755 11.65 24.8115 11.5327 24.7688C11.4207 24.7208 11.2847 24.6968 11.1247 24.6968C10.762 24.6968 10.4794 24.8195 10.2767 25.0648C10.0794 25.3102 9.98069 25.6515 9.98069 26.0888C9.98069 26.5262 10.0794 26.8648 10.2767 27.1048C10.474 27.3395 10.754 27.4568 11.1167 27.4568C11.2767 27.4568 11.418 27.4328 11.5407 27.3848C11.6634 27.3368 11.7887 27.2728 11.9167 27.1928C11.9754 27.1555 12.034 27.1235 12.0927 27.0968C12.1514 27.0702 12.2047 27.0568 12.2527 27.0568C12.3274 27.0568 12.3887 27.0888 12.4367 27.1528C12.4847 27.2115 12.5087 27.2862 12.5087 27.3768C12.5087 27.4515 12.4874 27.5208 12.4447 27.5848C12.4074 27.6435 12.3407 27.7048 12.2447 27.7688C12.0847 27.8755 11.898 27.9582 11.6847 28.0168C11.4714 28.0755 11.2554 28.1048 11.0367 28.1048ZM13.6399 28.0888C13.5225 28.0888 13.4239 28.0568 13.3439 27.9928C13.2692 27.9288 13.2319 27.8328 13.2319 27.7048V22.7608C13.2319 22.6328 13.2692 22.5368 13.3439 22.4728C13.4239 22.4035 13.5225 22.3688 13.6399 22.3688C13.7572 22.3688 13.8532 22.4035 13.9279 22.4728C14.0025 22.5368 14.0399 22.6328 14.0399 22.7608V27.7048C14.0399 27.8328 14.0025 27.9288 13.9279 27.9928C13.8532 28.0568 13.7572 28.0888 13.6399 28.0888ZM18.1934 24.0648C18.316 24.0648 18.412 24.0995 18.4814 24.1688C18.556 24.2382 18.5934 24.3342 18.5934 24.4568V27.7128C18.5934 27.8248 18.556 27.9155 18.4814 27.9848C18.4067 28.0542 18.308 28.0888 18.1854 28.0888C18.0734 28.0888 17.9827 28.0568 17.9134 27.9928C17.844 27.9235 17.8094 27.8328 17.8094 27.7208V27.4168C17.6867 27.6408 17.516 27.8115 17.2974 27.9288C17.084 28.0462 16.844 28.1048 16.5774 28.1048C15.628 28.1048 15.1534 27.5822 15.1534 26.5368V24.4568C15.1534 24.3342 15.188 24.2382 15.2574 24.1688C15.332 24.0995 15.4334 24.0648 15.5614 24.0648C15.684 24.0648 15.78 24.0995 15.8494 24.1688C15.924 24.2382 15.9614 24.3342 15.9614 24.4568V26.5288C15.9614 26.8435 16.0254 27.0755 16.1534 27.2248C16.2814 27.3742 16.4787 27.4488 16.7454 27.4488C17.06 27.4488 17.3107 27.3475 17.4974 27.1448C17.6894 26.9422 17.7854 26.6728 17.7854 26.3368V24.4568C17.7854 24.3395 17.8227 24.2462 17.8974 24.1768C17.972 24.1022 18.0707 24.0648 18.1934 24.0648ZM20.1321 28.0888C20.0147 28.0888 19.9161 28.0568 19.8361 27.9928C19.7614 27.9288 19.7241 27.8328 19.7241 27.7048V24.4568C19.7241 24.3288 19.7614 24.2328 19.8361 24.1688C19.9161 24.0995 20.0147 24.0648 20.1321 24.0648C20.2494 24.0648 20.3454 24.0995 20.4201 24.1688C20.4947 24.2328 20.5321 24.3288 20.5321 24.4568V27.7048C20.5321 27.8328 20.4947 27.9288 20.4201 27.9928C20.3454 28.0568 20.2494 28.0888 20.1321 28.0888ZM20.1321 23.2808C19.9774 23.2808 19.8547 23.2382 19.7641 23.1528C19.6734 23.0675 19.6281 22.9555 19.6281 22.8168C19.6281 22.6782 19.6734 22.5688 19.7641 22.4888C19.8547 22.4035 19.9774 22.3608 20.1321 22.3608C20.2814 22.3608 20.4014 22.4035 20.4921 22.4888C20.5881 22.5688 20.6361 22.6782 20.6361 22.8168C20.6361 22.9555 20.5907 23.0675 20.5001 23.1528C20.4094 23.2382 20.2867 23.2808 20.1321 23.2808ZM23.7096 24.0648C23.9656 24.0488 24.0936 24.1582 24.0936 24.3928C24.0936 24.5102 24.0642 24.5982 24.0056 24.6568C23.9469 24.7155 23.8456 24.7502 23.7016 24.7608L23.4616 24.7848C23.1256 24.8168 22.8749 24.9342 22.7096 25.1368C22.5496 25.3395 22.4696 25.5848 22.4696 25.8728V27.7048C22.4696 27.8328 22.4322 27.9288 22.3576 27.9928C22.2829 28.0568 22.1869 28.0888 22.0696 28.0888C21.9522 28.0888 21.8536 28.0568 21.7736 27.9928C21.6989 27.9288 21.6616 27.8328 21.6616 27.7048V24.4488C21.6616 24.3262 21.6989 24.2328 21.7736 24.1688C21.8536 24.0995 21.9522 24.0648 22.0696 24.0648C22.1762 24.0648 22.2642 24.0995 22.3336 24.1688C22.4082 24.2328 22.4456 24.3235 22.4456 24.4408V24.8248C22.5522 24.5902 22.7069 24.4115 22.9096 24.2888C23.1122 24.1662 23.3416 24.0942 23.5976 24.0728L23.7096 24.0648Z" fill="#AE1100"/>
<defs>
<clipPath id="clip0_75516_6788">
<rect width="17" height="16" fill="white" transform="translate(4 0.0488281)"/>
</clipPath>
</defs>
</svg>
