<svg width="11" height="12" viewBox="0 0 11 12" fill="none" xmlns="http://www.w3.org/2000/svg">
<path fill-rule="evenodd" clip-rule="evenodd" d="M5.49984 0.692871C5.86803 0.692871 6.1665 0.991348 6.1665 1.35954V5.35954H10.1665C10.5347 5.35954 10.8332 5.65802 10.8332 6.02621C10.8332 6.3944 10.5347 6.69287 10.1665 6.69287H6.1665V10.6929C6.1665 11.0611 5.86803 11.3595 5.49984 11.3595C5.13165 11.3595 4.83317 11.0611 4.83317 10.6929V6.69287H0.833171C0.464981 6.69287 0.166504 6.3944 0.166504 6.02621C0.166504 5.65802 0.464981 5.35954 0.833171 5.35954H4.83317V1.35954C4.83317 0.991348 5.13165 0.692871 5.49984 0.692871Z" fill="#F8F8F9"/>
</svg>
