<svg width="22" height="32" viewBox="0 0 22 32" fill="none" xmlns="http://www.w3.org/2000/svg">
<g clip-path="url(#clip0_75516_6783)">
<path d="M3.75 15.2989L8 14.2989L17.2929 5.00603C17.6834 4.6155 17.6834 3.98234 17.2929 3.59181L15.4571 1.75603C15.0666 1.3655 14.4334 1.3655 14.0429 1.75603L4.75 11.0489L3.75 15.2989Z" stroke="#747488" stroke-width="1.5" stroke-linecap="round" stroke-linejoin="round"/>
<path d="M18.25 15.2988H12.75" stroke="#747488" stroke-width="1.5" stroke-linecap="round" stroke-linejoin="round"/>
</g>
<path d="M1.064 28.0488C0.936 28.0488 0.834667 28.0142 0.76 27.9448C0.690667 27.8702 0.656 27.7715 0.656 27.6488V22.8088C0.656 22.6862 0.690667 22.5902 0.76 22.5208C0.834667 22.4462 0.936 22.4088 1.064 22.4088H4.008C4.13067 22.4088 4.224 22.4382 4.288 22.4968C4.35733 22.5555 4.392 22.6382 4.392 22.7448C4.392 22.8515 4.35733 22.9342 4.288 22.9928C4.224 23.0462 4.13067 23.0728 4.008 23.0728H1.464V24.8488H3.848C3.97067 24.8488 4.064 24.8782 4.128 24.9368C4.19733 24.9955 4.232 25.0782 4.232 25.1848C4.232 25.2915 4.19733 25.3742 4.128 25.4328C4.064 25.4915 3.97067 25.5208 3.848 25.5208H1.464V27.3848H4.008C4.264 27.3848 4.392 27.4942 4.392 27.7128C4.392 27.8195 4.35733 27.9022 4.288 27.9608C4.224 28.0195 4.13067 28.0488 4.008 28.0488H1.064ZM8.43169 22.3688C8.55435 22.3688 8.65302 22.4035 8.72769 22.4728C8.80235 22.5422 8.83969 22.6355 8.83969 22.7528V27.6968C8.83969 27.8195 8.80235 27.9155 8.72769 27.9848C8.65835 28.0542 8.56235 28.0888 8.43969 28.0888C8.31702 28.0888 8.21835 28.0542 8.14369 27.9848C8.07435 27.9155 8.03969 27.8195 8.03969 27.6968V27.3768C7.92235 27.6115 7.75169 27.7928 7.52769 27.9208C7.30369 28.0435 7.04502 28.1048 6.75169 28.1048C6.41569 28.1048 6.11435 28.0195 5.84769 27.8488C5.58635 27.6782 5.38102 27.4382 5.23169 27.1288C5.08769 26.8195 5.01569 26.4648 5.01569 26.0648C5.01569 25.6595 5.08769 25.3048 5.23169 25.0008C5.38102 24.6968 5.58635 24.4622 5.84769 24.2968C6.10902 24.1315 6.41035 24.0488 6.75169 24.0488C7.04502 24.0488 7.30102 24.1128 7.51969 24.2408C7.74369 24.3635 7.91435 24.5395 8.03169 24.7688V22.7368C8.03169 22.6248 8.06635 22.5368 8.13569 22.4728C8.21035 22.4035 8.30902 22.3688 8.43169 22.3688ZM6.94369 27.4648C7.29035 27.4648 7.55969 27.3448 7.75169 27.1048C7.94369 26.8648 8.03969 26.5235 8.03969 26.0808C8.03969 25.6382 7.94369 25.2968 7.75169 25.0568C7.56502 24.8168 7.29569 24.6968 6.94369 24.6968C6.59169 24.6968 6.31702 24.8168 6.11969 25.0568C5.92769 25.2915 5.83169 25.6275 5.83169 26.0648C5.83169 26.5022 5.93035 26.8462 6.12769 27.0968C6.32502 27.3422 6.59702 27.4648 6.94369 27.4648ZM10.3743 28.0888C10.2569 28.0888 10.1583 28.0568 10.0783 27.9928C10.0036 27.9288 9.96625 27.8328 9.96625 27.7048V24.4568C9.96625 24.3288 10.0036 24.2328 10.0783 24.1688C10.1583 24.0995 10.2569 24.0648 10.3743 24.0648C10.4916 24.0648 10.5876 24.0995 10.6623 24.1688C10.7369 24.2328 10.7743 24.3288 10.7743 24.4568V27.7048C10.7743 27.8328 10.7369 27.9288 10.6623 27.9928C10.5876 28.0568 10.4916 28.0888 10.3743 28.0888ZM10.3743 23.2808C10.2196 23.2808 10.0969 23.2382 10.0063 23.1528C9.91558 23.0675 9.87025 22.9555 9.87025 22.8168C9.87025 22.6782 9.91558 22.5688 10.0063 22.4888C10.0969 22.4035 10.2196 22.3608 10.3743 22.3608C10.5236 22.3608 10.6436 22.4035 10.7343 22.4888C10.8303 22.5688 10.8783 22.6782 10.8783 22.8168C10.8783 22.9555 10.8329 23.0675 10.7423 23.1528C10.6516 23.2382 10.5289 23.2808 10.3743 23.2808ZM13.9251 27.4728C14.0425 27.4835 14.1251 27.5155 14.1731 27.5688C14.2265 27.6168 14.2531 27.6862 14.2531 27.7768C14.2531 27.8835 14.2105 27.9662 14.1251 28.0248C14.0451 28.0782 13.9251 28.0995 13.7651 28.0888L13.5491 28.0728C13.1171 28.0408 12.7945 27.9102 12.5811 27.6808C12.3678 27.4462 12.2611 27.1022 12.2611 26.6488V24.7688H11.7811C11.5465 24.7688 11.4291 24.6648 11.4291 24.4568C11.4291 24.3608 11.4585 24.2862 11.5171 24.2328C11.5811 24.1742 11.6691 24.1448 11.7811 24.1448H12.2611V23.3208C12.2611 23.1982 12.2958 23.1022 12.3651 23.0328C12.4398 22.9635 12.5385 22.9288 12.6611 22.9288C12.7838 22.9288 12.8825 22.9635 12.9571 23.0328C13.0318 23.1022 13.0691 23.1982 13.0691 23.3208V24.1448H13.8611C13.9731 24.1448 14.0585 24.1742 14.1171 24.2328C14.1811 24.2862 14.2131 24.3608 14.2131 24.4568C14.2131 24.5582 14.1811 24.6355 14.1171 24.6888C14.0585 24.7422 13.9731 24.7688 13.8611 24.7688H13.0691V26.7048C13.0691 26.9555 13.1198 27.1395 13.2211 27.2568C13.3278 27.3742 13.4878 27.4408 13.7011 27.4568L13.9251 27.4728ZM16.4734 24.0488C16.9908 24.0488 17.3748 24.1795 17.6254 24.4408C17.8814 24.7022 18.0094 25.0995 18.0094 25.6328V27.7048C18.0094 27.8275 17.9748 27.9235 17.9054 27.9928C17.8361 28.0568 17.7401 28.0888 17.6174 28.0888C17.5001 28.0888 17.4068 28.0542 17.3374 27.9848C17.2681 27.9155 17.2334 27.8222 17.2334 27.7048V27.4088C17.1321 27.6328 16.9801 27.8062 16.7774 27.9288C16.5801 28.0462 16.3481 28.1048 16.0814 28.1048C15.8254 28.1048 15.5908 28.0542 15.3774 27.9528C15.1694 27.8462 15.0041 27.7022 14.8814 27.5208C14.7588 27.3395 14.6974 27.1342 14.6974 26.9048C14.6921 26.6168 14.7641 26.3928 14.9134 26.2328C15.0628 26.0675 15.3054 25.9502 15.6414 25.8808C15.9774 25.8062 16.4441 25.7688 17.0414 25.7688H17.2254V25.5368C17.2254 25.2382 17.1641 25.0222 17.0414 24.8888C16.9188 24.7555 16.7214 24.6888 16.4494 24.6888C16.2628 24.6888 16.0868 24.7128 15.9214 24.7608C15.7561 24.8088 15.5748 24.8782 15.3774 24.9688C15.2334 25.0488 15.1321 25.0888 15.0734 25.0888C14.9934 25.0888 14.9268 25.0595 14.8734 25.0008C14.8254 24.9422 14.8014 24.8675 14.8014 24.7768C14.8014 24.6968 14.8228 24.6275 14.8654 24.5688C14.9134 24.5048 14.9881 24.4435 15.0894 24.3848C15.2761 24.2835 15.4948 24.2035 15.7454 24.1448C15.9961 24.0808 16.2388 24.0488 16.4734 24.0488ZM16.2254 27.5048C16.5188 27.5048 16.7588 27.4062 16.9454 27.2088C17.1321 27.0062 17.2254 26.7475 17.2254 26.4328V26.2248H17.0814C16.6654 26.2248 16.3454 26.2435 16.1214 26.2808C15.8974 26.3182 15.7374 26.3822 15.6414 26.4728C15.5454 26.5582 15.4974 26.6835 15.4974 26.8488C15.4974 27.0408 15.5668 27.1982 15.7054 27.3208C15.8441 27.4435 16.0174 27.5048 16.2254 27.5048ZM21.1627 24.0648C21.4187 24.0488 21.5467 24.1582 21.5467 24.3928C21.5467 24.5102 21.5174 24.5982 21.4587 24.6568C21.4 24.7155 21.2987 24.7502 21.1547 24.7608L20.9147 24.7848C20.5787 24.8168 20.328 24.9342 20.1627 25.1368C20.0027 25.3395 19.9227 25.5848 19.9227 25.8728V27.7048C19.9227 27.8328 19.8854 27.9288 19.8107 27.9928C19.736 28.0568 19.64 28.0888 19.5227 28.0888C19.4054 28.0888 19.3067 28.0568 19.2267 27.9928C19.152 27.9288 19.1147 27.8328 19.1147 27.7048V24.4488C19.1147 24.3262 19.152 24.2328 19.2267 24.1688C19.3067 24.0995 19.4054 24.0648 19.5227 24.0648C19.6294 24.0648 19.7174 24.0995 19.7867 24.1688C19.8614 24.2328 19.8987 24.3235 19.8987 24.4408V24.8248C20.0054 24.5902 20.16 24.4115 20.3627 24.2888C20.5654 24.1662 20.7947 24.0942 21.0507 24.0728L21.1627 24.0648Z" fill="#747488"/>
<defs>
<clipPath id="clip0_75516_6783">
<rect width="16" height="16" fill="white" transform="translate(3 0.0488281)"/>
</clipPath>
</defs>
</svg>
